<?xml version="1.0" encoding="utf-8"?>
<!-- Generator: Adobe Illustrator 16.0.0, SVG Export Plug-In . SVG Version: 6.00 Build 0)  -->
<!DOCTYPE svg PUBLIC "-//W3C//DTD SVG 1.1//EN" "http://www.w3.org/Graphics/SVG/1.1/DTD/svg11.dtd">
<svg version="1.1" id="圖層_1" xmlns="http://www.w3.org/2000/svg" xmlns:xlink="http://www.w3.org/1999/xlink" x="0px" y="0px"
	 width="300px" height="300px" viewBox="0 0 300 300" enable-background="new 0 0 300 300" xml:space="preserve">
<g id="城市">
	<g>
		<path fill="#FFFFFF" stroke="#231815" stroke-width="16.1573" d="M169.535,134.21c0,41.261-33.443,74.712-74.696,74.712
			c-41.269,0-74.728-33.451-74.728-74.712c0-41.261,33.458-74.712,74.728-74.712C136.093,59.498,169.535,92.949,169.535,134.21z"/>
		<path fill="#CC0000" stroke="#231815" stroke-width="16.1573" d="M137.947,134.21c0,23.794-19.305,43.092-43.107,43.092
			c-23.802,0-43.091-19.298-43.091-43.092s19.29-43.091,43.091-43.091C118.641,91.119,137.947,110.416,137.947,134.21z"/>
	</g>
</g>
<g>
	
		<image overflow="visible" opacity="0.8" enable-background="new    " width="767" height="475" xlink:href="6CC8EB34.png"  transform="matrix(0.2386 0 0 0.2386 110.3464 144.4419)">
	</image>
	<g>
		<rect x="114.179" y="148.716" fill="none" width="171.146" height="98.011"/>
		<g enable-background="new    ">
			<path fill="#EA5514" d="M130.678,179.002l1.266-3.188c-0.938,0.094-1.906,0.234-2.906,0.422
				c-0.625,0.125-1.484,0.188-2.578,0.188c-1.531,0-2.297-0.766-2.297-2.297c0-0.656,0.195-1.43,0.586-2.32
				c0.391-0.891,0.836-1.57,1.336-2.039c1.094-1.031,3.382-1.875,6.867-2.531c3.484-0.656,7.57-0.984,12.258-0.984
				c3.593,0,7.023,0.484,10.289,1.453s6.086,2.305,8.461,4.008s4.227,3.656,5.555,5.859s1.992,4.602,1.992,7.195
				c0,2.781-0.578,5.367-1.734,7.758s-2.797,4.477-4.922,6.258c-1.406,1.188-2.719,2.094-3.938,2.719s-2.969,1.281-5.25,1.969
				c0.594,1.094,1.117,1.938,1.57,2.531s1.211,1.422,2.273,2.484c2.813,2.531,6.844,4.828,12.094,6.891
				c0.25,0.125,0.563,0.25,0.938,0.375c-0.563,2.656-1.094,4.594-1.594,5.813s-1.281,2.547-2.344,3.984
				c-1.938,2.563-4.266,3.844-6.984,3.844c-1.5,0-3.352-0.555-5.555-1.664s-4.008-2.414-5.414-3.914
				c-1.094-1.279-2.102-2.639-3.023-4.076c-0.922-1.438-1.852-3.07-2.789-4.898s-1.742-3.607-2.414-5.342
				c-0.672-1.734-1.165-3.258-1.477-4.57c-0.063-0.25-0.094-0.609-0.094-1.078c0-0.656,0.188-1.172,0.563-1.547
				s1.062-0.719,2.063-1.031c1.406-0.5,2.562-1.055,3.469-1.664c0.906-0.609,2.046-1.553,3.422-2.836
				c1.562-1.717,2.789-3.725,3.679-6.021s1.336-4.615,1.336-6.959c0-2.781-0.639-4.945-1.914-6.492
				c-1.277-1.547-3.318-2.631-6.121-3.258c-2.691,9.781-5.352,18.984-7.979,27.607l-0.985,3.561
				c-1.628,5.625-2.996,9.797-4.106,12.516c-1.11,2.717-2.212,4.623-3.306,5.717c-1.095,1.092-2.8,2.17-5.113,3.232
				c-2.314,1.063-4.128,1.594-5.441,1.594c-2.564,0-3.846-1.438-3.846-4.313c0-1.188,0.352-3.227,1.055-6.117
				s1.789-6.672,3.258-11.344c1.469-4.672,3.007-9.242,4.617-13.711C127.108,188.314,128.834,183.721,130.678,179.002z"/>
			<path fill="#EA5514" d="M215.569,207.689l-17.109-0.094v1.172c0,2.281,0.656,4.352,1.969,6.211s2.766,2.789,4.359,2.789
				c1.625,0,3.977-0.594,7.055-1.781s6.586-2.891,10.523-5.109l1.641-0.984c1.125-0.625,1.891-1.094,2.297-1.406
				c1.844-1.156,3-1.734,3.469-1.734c0.563,0,0.844,0.516,0.844,1.547c0,1.125-0.203,2.406-0.609,3.844s-0.922,2.82-1.547,4.148
				s-1.25,2.273-1.875,2.836c-1.781,1.594-4.828,3.328-9.141,5.203s-8.688,3.344-13.125,4.406c-1.5,0.313-2.875,0.469-4.125,0.469
				c-4.281,0-8.195-0.867-11.742-2.602s-6.297-4.117-8.25-7.148s-2.93-6.406-2.93-10.125c0-3.063,0.641-6.438,1.922-10.125
				s3.078-7.367,5.391-11.039s4.922-7.008,7.828-10.008c2.531-2.625,5.359-5.008,8.484-7.148s6.164-3.789,9.117-4.945
				s5.664-1.734,8.133-1.734c3.875,0,7.195,1.102,9.961,3.305s4.148,4.867,4.148,7.992c0,1.375-0.25,2.875-0.75,4.5
				s-1.172,3.047-2.016,4.266c-0.875,1.313-2.172,2.594-3.891,3.844s-3.656,2.328-5.813,3.234c-2.594,1.031-4.813,1.547-6.656,1.547
				s-2.766-0.453-2.766-1.359c0-0.531,0.516-1.359,1.547-2.484c1.125-1,2.203-2.375,3.234-4.125c1-1.844,1.875-4.016,2.625-6.516
				s1.125-4.453,1.125-5.859c0-1.156-0.344-1.734-1.031-1.734c-1.094,0-3.063,1.203-5.906,3.609s-5.094,4.781-6.75,7.125
				c-1.563,2.188-2.844,4.414-3.844,6.68s-1.672,4.492-2.016,6.68h25.031c2.75,0,4.125,0.703,4.125,2.109
				c0,1.313-1.531,3.453-4.594,6.422C220.881,206.314,218.1,207.689,215.569,207.689z"/>
			<path fill="#EA5514" d="M256.678,218.846l-0.516,0.469c-0.156,0.125-0.391,0.336-0.703,0.633s-0.609,0.57-0.891,0.82
				c-3.563,3.313-6.227,5.563-7.992,6.75s-3.367,1.781-4.805,1.781c-1.875,0-3.414-0.555-4.617-1.664s-1.805-2.539-1.805-4.289
				c0-1.938,0.828-3.719,2.484-5.344c0.438-0.438,1.563-1.375,3.375-2.813c2.844-2.219,4.828-3.844,5.953-4.875
				c1.219-1.219,2.344-2.438,3.375-3.656c-1.281-2.781-2.563-5.313-3.844-7.594c-0.844-1.344-1.609-2.594-2.297-3.75
				c-1.063-1.5-2.07-2.75-3.023-3.75s-1.93-1.828-2.93-2.484c-1.219-0.719-1.828-1.391-1.828-2.016c0-0.594,0.609-1.109,1.828-1.547
				s2.719-0.656,4.5-0.656c4.156,0,7.734,1.063,10.734,3.188c0.813,0.563,1.516,1.078,2.109,1.547s1.328,1.133,2.203,1.992
				s1.781,1.758,2.719,2.695c2.5-3.25,4.969-5.758,7.406-7.523s4.609-2.648,6.516-2.648c1.313,0,2.563,0.242,3.75,0.727
				s1.781,1.008,1.781,1.57c0,1.188-0.508,2.594-1.523,4.219s-2.68,3.766-4.992,6.422c-1.906,2.281-3.055,3.672-3.445,4.172
				s-1.133,1.609-2.227,3.328l11.156,17.859c0.625,1.031,0.938,1.922,0.938,2.672c0,1.281-1.008,2.469-3.023,3.563
				s-4.195,1.641-6.539,1.641c-4.25,0-7.516-1.547-9.797-4.641C259.615,224.143,258.272,221.877,256.678,218.846z"/>
		</g>
	</g>
</g>
</svg>
